<svg xmlns="http://www.w3.org/2000/svg" xmlns:xlink="http://www.w3.org/1999/xlink" width="414" height="896" viewBox="0 0 414 896">
  <defs>
    <style>
      .cls-1 {
        clip-path: url(#clip-iPhone_XR_XS_Max_11_1);
      }

      .cls-2, .cls-3 {
        fill: #fff;
        font-family: Roboto-Regular, Roboto;
      }

      .cls-2 {
        font-size: 30px;
      }

      .cls-3 {
        font-size: 80px;
      }

      .cls-4 {
        fill: #9b800e;
      }

      .cls-11, .cls-13, .cls-5 {
        fill: none;
      }

      .cls-5 {
        stroke: #745e18;
        stroke-miterlimit: 10;
        stroke-width: 20px;
      }

      .cls-6 {
        fill: #c6ac3c;
      }

      .cls-7 {
        fill: #ccb140;
      }

      .cls-8 {
        fill: #74600b;
      }

      .cls-9 {
        fill: #4e4007;
      }

      .cls-10 {
        fill: #c3b36e;
      }

      .cls-11 {
        stroke: #fff;
      }

      .cls-12 {
        stroke: none;
      }

      .cls-14 {
        fill: #151515;
      }
    </style>
    <clipPath id="clip-iPhone_XR_XS_Max_11_1">
      <rect width="414" height="896"/>
    </clipPath>
  </defs>
  <g id="iPhone_XR_XS_Max_11_1" data-name="iPhone XR/XS Max/11 – 1" class="cls-1">
    <rect class="cls-14" width="414" height="896"/>
    <text id="connect_wallet" data-name="connect wallet" class="cls-2" transform="translate(110 761)"><tspan x="0" y="0">connect wallet</tspan></text>
    <text id="Welcome" class="cls-3" transform="translate(41 105)"><tspan x="0" y="0">Welcome</tspan></text>
    <g id="Group_1" data-name="Group 1" transform="translate(-645.298 -601.929)">
      <circle id="Ellipse_1" data-name="Ellipse 1" class="cls-4" cx="152.802" cy="152.802" r="152.802" transform="translate(699.298 769.384)"/>
      <circle id="Ellipse_2" data-name="Ellipse 2" class="cls-5" cx="152.802" cy="152.802" r="152.802" transform="translate(699.298 766.907)"/>
      <path id="Path_1" data-name="Path 1" class="cls-6" d="M1040.194,1119.972a92.415,92.415,0,0,1-5.394,31.375c-.208-.121-.421-.233-.633-.346a34.564,34.564,0,0,0-8.527-3.157c-.633-.146-1.279-.279-1.933-.391a10.624,10.624,0,0,0-4.258.133l-.033.008a11.956,11.956,0,0,0-3.695,1.566,5.507,5.507,0,0,0-.521.358c-2.774,2.041-4.261,5.19-3.541,8.248a6.87,6.87,0,0,0,1.278,2.654,5.94,5.94,0,0,1,1.625-1.879c2.741-2.066,7.011-1.429,11.288,1.229.321.2.642.408.962.633s.667.471,1,.729q.825.625,1.629,1.358c.012.008.021.017.033.025.084.075.167.154.25.229-11.552,21.436-31.529,35.607-54.24,35.607-35.736,0-64.708-35.091-64.708-78.379,0-2.3.079-4.574.242-6.819,2.858,17.441,30.63,31.129,64.466,31.129s61.613-13.688,64.47-31.129C1040.115,1115.4,1040.194,1117.677,1040.194,1119.972Z" transform="translate(-123.384 -202.015)"/>
      <path id="Path_2" data-name="Path 2" class="cls-4" d="M1152.388,1208.7a6.864,6.864,0,0,0,1.279,2.654,3.523,3.523,0,0,0-.166,1.7,11.657,11.657,0,0,1-1.525-5.031,8.827,8.827,0,0,1,3.953-7.569C1153.155,1202.492,1151.668,1205.641,1152.388,1208.7Z" transform="translate(-264.112 -252.948)"/>
      <path id="Path_3" data-name="Path 3" class="cls-7" d="M1189.709,1222.274c0,.033,0,.067-.008.1-.546,7.7-6.04,14.167-14.051,17.824a11.171,11.171,0,0,0,1.321-2.366,16.713,16.713,0,0,0,.941-3.087,23.637,23.637,0,0,0,.454-5.253,30.512,30.512,0,0,0-.829-6.532,31.523,31.523,0,0,0-1.987-5.84h0c-.074-.171-.166-.354-.263-.546a21.673,21.673,0,0,0-4.511-6.007c-.083-.075-.167-.154-.25-.229l-.033-.025q-.806-.731-1.629-1.358c-.329-.258-.662-.5-1-.729s-.641-.433-.962-.633c-4.277-2.658-8.547-3.295-11.288-1.229a5.94,5.94,0,0,0-1.625,1.879,6.87,6.87,0,0,1-1.278-2.654c-.721-3.058.767-6.207,3.541-8.248a5.5,5.5,0,0,1,.521-.358,11.953,11.953,0,0,1,3.695-1.566l.033-.009a10.626,10.626,0,0,1,4.258-.133c.654.112,1.3.246,1.933.392a34.572,34.572,0,0,1,8.527,3.157c.213.113.425.225.633.346,1.1.6,2.187,1.25,3.236,1.933A23.475,23.475,0,0,1,1189.709,1222.274Z" transform="translate(-264.436 -249.839)"/>
      <path id="Path_4" data-name="Path 4" class="cls-4" d="M1168.457,1221.623l0,0a8.847,8.847,0,0,1-1.83,3.394,7.629,7.629,0,0,1-1.363,1.233,6.758,6.758,0,0,1-3.924,1.275,6.456,6.456,0,0,1-1.558-.188,6.855,6.855,0,0,1-2.466-1.162,5.772,5.772,0,0,1-1.565-1.551c-.8-1.246-.625-1.617-.215-2.346l.006-.011a5.932,5.932,0,0,1,1.625-1.879C1159.909,1218.328,1164.179,1218.966,1168.457,1221.623Z" transform="translate(-265.988 -263.869)"/>
      <path id="Path_5" data-name="Path 5" class="cls-8" d="M1164.409,1277.631a23.608,23.608,0,0,1-.454,5.253,16.67,16.67,0,0,1-.941,3.087,11.206,11.206,0,0,1-1.321,2.366h0a34.9,34.9,0,0,1-7.381,2.4,39.916,39.916,0,0,1-11,.721,40.5,40.5,0,0,1-8.7-1.566,36.5,36.5,0,0,1-6-2.366,58.576,58.576,0,0,0,12.951-9.068,27,27,0,0,0,3.669,1.425h0c.633.2,1.287.375,1.954.533a28.478,28.478,0,0,0,3.182.567C1156.345,1281.7,1161.672,1280.384,1164.409,1277.631Z" transform="translate(-250.477 -297.978)"/>
      <path id="Path_6" data-name="Path 6" class="cls-9" d="M1042.586,1072.435c0,15.859-26.3,28.713-58.733,28.713s-58.738-12.853-58.738-28.713,26.3-28.712,58.738-28.712S1042.586,1056.58,1042.586,1072.435Z" transform="translate(-131.752 -161.506)"/>
      <path id="Path_7" data-name="Path 7" class="cls-10" d="M1061.821,1049.495a14.546,14.546,0,0,1-9.794,10.061,14.52,14.52,0,0,0-3.859-13.647q-.269-.269-.549-.521a11.685,11.685,0,0,1-2.692-3.515,14.536,14.536,0,0,1,8.617-20.225,14.513,14.513,0,0,0,3.545,12.829q.2.212.4.419.191.192.389.375a13.3,13.3,0,0,1,2.1,2.443A14.547,14.547,0,0,1,1061.821,1049.495Z" transform="translate(-200.795 -148.627)"/>
      <path id="Path_8" data-name="Path 8" class="cls-10" d="M1063.518,931.845a8.8,8.8,0,0,1-5.924,6.086,8.786,8.786,0,0,0-1.7-7.554,8.908,8.908,0,0,0-.63-.7c-.108-.108-.219-.214-.332-.315a7.063,7.063,0,0,1-1.628-2.127A8.793,8.793,0,0,1,1058.513,915a8.78,8.78,0,0,0,2.145,7.76c.079.085.16.169.244.253s.156.153.235.227a8.047,8.047,0,0,1,1.268,1.477A8.8,8.8,0,0,1,1063.518,931.845Z" transform="translate(-206.02 -86.405)"/>
      <path id="Path_9" data-name="Path 9" class="cls-10" d="M1022.564,977.841a11.268,11.268,0,0,0-7.587-7.794,11.235,11.235,0,0,1-2.99,10.572q-.208.209-.424.4a9.048,9.048,0,0,0-2.086,2.724,11.263,11.263,0,0,0,6.676,15.668,11.242,11.242,0,0,1,2.746-9.939q.152-.164.312-.325t.3-.29a10.3,10.3,0,0,0,1.624-1.893A11.269,11.269,0,0,0,1022.564,977.841Z" transform="translate(-180.305 -118.52)"/>
    </g>
    <g id="Rectangle_1" data-name="Rectangle 1" class="cls-11" transform="translate(98 725)">
      <rect class="cls-12" width="219" height="52" rx="26"/>
      <rect class="cls-13" x="0.5" y="0.5" width="218" height="51" rx="25.5"/>
    </g>
  </g>
</svg>
