<svg xmlns="http://www.w3.org/2000/svg" xmlns:xlink="http://www.w3.org/1999/xlink" width="414" height="896" viewBox="0 0 414 896">
  <defs>
    <style>
      .cls-1 {
        clip-path: url(#clip-iPhone_XR_XS_Max_11_4);
      }

      .cls-2 {
        opacity: 0.1;
      }

      .cls-3 {
        fill: #c6ac3c;
      }

      .cls-4 {
        fill: #9b800e;
      }

      .cls-5 {
        fill: #ccb140;
      }

      .cls-6 {
        fill: #74600b;
      }

      .cls-7 {
        fill: #4e4007;
      }

      .cls-8 {
        fill: #c3b36e;
      }

      .cls-10, .cls-9 {
        fill: #fff;
        font-family: Roboto-Regular, Roboto;
      }

      .cls-9 {
        font-size: 25px;
      }

      .cls-10 {
        font-size: 20px;
      }

      .cls-11 {
        fill: #151515;
      }
    </style>
    <clipPath id="clip-iPhone_XR_XS_Max_11_4">
      <rect width="414" height="896"/>
    </clipPath>
  </defs>
  <g id="iPhone_XR_XS_Max_11_4" data-name="iPhone XR/XS Max/11 – 4" class="cls-1">
    <rect class="cls-11" width="414" height="896"/>
    <g id="Group_2" data-name="Group 2" class="cls-2" transform="translate(-1059.298 -749.574)">
      <path id="Path_1" data-name="Path 1" class="cls-3" d="M1399.2,1138.887a348.78,348.78,0,0,1-20.357,118.41c-.787-.455-1.588-.881-2.389-1.307a130.344,130.344,0,0,0-32.182-11.912c-2.389-.553-4.826-1.057-7.293-1.479a40.127,40.127,0,0,0-16.068.5l-.125.033a44.994,44.994,0,0,0-13.943,5.912,20.289,20.289,0,0,0-1.965,1.352c-10.471,7.7-16.082,19.586-13.363,31.125a25.893,25.893,0,0,0,4.824,10.014,22.424,22.424,0,0,1,6.133-7.09c10.344-7.8,26.459-5.391,42.6,4.639,1.213.754,2.422,1.541,3.631,2.389,1.26.865,2.518,1.775,3.76,2.752q3.111,2.355,6.146,5.127c.047.029.078.061.125.094.314.283.629.58.943.863-43.6,80.9-118.99,134.381-204.7,134.381-134.867,0-244.205-132.432-244.205-295.8,0-8.66.3-17.262.912-25.732,10.783,65.822,115.594,117.48,243.293,117.48,127.717,0,232.525-51.658,243.309-117.48C1398.9,1121.625,1399.2,1130.227,1399.2,1138.887Z" transform="translate(120.98 198.075)"/>
      <path id="Path_2" data-name="Path 2" class="cls-4" d="M1153.533,1231.576a25.882,25.882,0,0,0,4.824,10.018c-.814,1.445-.7,3.453-.627,6.408-2.752-5-5.756-12.65-5.756-18.986,0-12.354,6.035-23.094,14.918-28.564C1156.426,1208.156,1150.813,1220.039,1153.533,1231.576Z" transform="translate(258.965 248.017)"/>
      <path id="Path_3" data-name="Path 3" class="cls-5" d="M1292.84,1297.592c-.012.123-.012.252-.027.375-2.062,29.07-22.8,53.467-53.029,67.27a42.033,42.033,0,0,0,4.984-8.928,62.7,62.7,0,0,0,3.555-11.648,89.308,89.308,0,0,0,1.713-19.826,114.949,114.949,0,0,0-3.129-24.648,119.19,119.19,0,0,0-7.5-22.041h-.018c-.283-.643-.633-1.336-.994-2.059a81.71,81.71,0,0,0-17.021-22.67c-.312-.281-.629-.582-.945-.865-.049-.033-.078-.062-.125-.094-2.025-1.84-4.072-3.555-6.146-5.125-1.242-.975-2.5-1.885-3.758-2.752-1.209-.85-2.418-1.633-3.633-2.391-16.141-10.029-32.258-12.436-42.6-4.637a22.527,22.527,0,0,0-6.133,7.092,25.944,25.944,0,0,1-4.822-10.014c-2.723-11.541,2.891-23.426,13.361-31.129a21.275,21.275,0,0,1,1.965-1.352,45.2,45.2,0,0,1,13.943-5.912l.127-.029a40.054,40.054,0,0,1,16.068-.5c2.467.424,4.9.926,7.293,1.477a130.418,130.418,0,0,1,32.18,11.918c.8.422,1.6.848,2.391,1.3,4.148,2.268,8.256,4.719,12.213,7.3A88.584,88.584,0,0,1,1292.84,1297.592Z" transform="translate(259.281 244.969)"/>
      <path id="Path_4" data-name="Path 4" class="cls-4" d="M1205.254,1228.432l.006.02a33.441,33.441,0,0,1-6.906,12.811,28.852,28.852,0,0,1-5.143,4.652,25.491,25.491,0,0,1-14.809,4.813,24.4,24.4,0,0,1-5.879-.709,25.877,25.877,0,0,1-9.309-4.385,21.784,21.784,0,0,1-5.906-5.854c-3.014-4.7-2.357-6.1-.812-8.852l.021-.043a22.431,22.431,0,0,1,6.133-7.09C1173,1216,1189.107,1218.4,1205.254,1228.432Z" transform="translate(260.802 258.723)"/>
      <path id="Path_5" data-name="Path 5" class="cls-6" d="M1263.727,1277.631a89.044,89.044,0,0,1-1.715,19.824,62.989,62.989,0,0,1-3.549,11.646,42.262,42.262,0,0,1-4.986,8.93h-.02a131.5,131.5,0,0,1-27.854,9.059,150.72,150.72,0,0,1-41.5,2.721,152.924,152.924,0,0,1-32.838-5.914,137.492,137.492,0,0,1-22.656-8.926,221.044,221.044,0,0,0,48.879-34.227,101.331,101.331,0,0,0,13.848,5.375h.016c2.391.754,4.855,1.416,7.375,2.012a106.784,106.784,0,0,0,12.01,2.139C1233.291,1292.975,1253.4,1288.021,1263.727,1277.631Z" transform="translate(245.595 292.169)"/>
      <path id="Path_6" data-name="Path 6" class="cls-7" d="M1368.447,1152.082c0,59.854-99.246,108.361-221.656,108.361-122.432,0-221.676-48.508-221.676-108.361,0-59.836,99.244-108.359,221.676-108.359C1269.2,1043.723,1368.447,1092.246,1368.447,1152.082Z" transform="translate(129.183 158.358)"/>
      <path id="Path_7" data-name="Path 7" class="cls-8" d="M1112.775,1126.74a54.885,54.885,0,0,1-36.961,37.969,54.854,54.854,0,0,0-14.562-51.5q-1.014-1.011-2.07-1.965a44.085,44.085,0,0,1-10.16-13.268,54.858,54.858,0,0,1,32.521-76.326,54.77,54.77,0,0,0,13.377,48.418q.744.8,1.521,1.58.721.724,1.467,1.414a50.449,50.449,0,0,1,7.91,9.219A54.908,54.908,0,0,1,1112.775,1126.74Z" transform="translate(196.882 145.731)"/>
      <path id="Path_8" data-name="Path 8" class="cls-8" d="M1094.338,978.568a33.2,33.2,0,0,1-22.355,22.965,33.15,33.15,0,0,0-6.432-28.506,33.877,33.877,0,0,0-2.377-2.646c-.408-.406-.826-.8-1.252-1.187a26.605,26.605,0,0,1-6.145-8.025A33.179,33.179,0,0,1,1075.445,915a33.126,33.126,0,0,0,8.094,29.285q.448.483.92.957c.293.291.59.576.887.854a30.452,30.452,0,0,1,4.787,5.576A33.215,33.215,0,0,1,1094.338,978.568Z" transform="translate(202.004 84.72)"/>
      <path id="Path_9" data-name="Path 9" class="cls-8" d="M1062.037,999.461a42.52,42.52,0,0,0-28.631-29.414,42.41,42.41,0,0,1-11.283,39.9q-.785.788-1.6,1.523a34.117,34.117,0,0,0-7.871,10.279,42.5,42.5,0,0,0,25.193,59.129,42.427,42.427,0,0,1,10.363-37.508q.574-.621,1.18-1.225c.375-.373.752-.738,1.135-1.1a38.818,38.818,0,0,0,6.129-7.145A42.53,42.53,0,0,0,1062.037,999.461Z" transform="translate(176.79 116.21)"/>
    </g>
    <text id="We_re_Sorry_" data-name="We’re Sorry," class="cls-9" transform="translate(143 62)"><tspan x="0" y="0">We’re Sorry,</tspan></text>
    <text id="Solana_price_went_down_your_Vault_collapsed._Cappuccino_tokens_you_have_will_remain_yours" data-name="Solana price went down your Vault collapsed. 
Cappuccino tokens you have will remain yours" class="cls-10" transform="translate(207 104)"><tspan x="-203.32" y="0">Solana price went down your Vault collapsed. </tspan><tspan x="-204.238" y="24">Cappuccino tokens you have will remain yours</tspan></text>
    <text id="Deposited_45_Solana_has_been_taken_BY_the_PROGRAM" data-name="Deposited 45 Solana has been taken BY the 
PROGRAM" class="cls-10" transform="translate(207 222)"><tspan x="-194.805" y="0">Deposited 45 Solana has been taken BY the </tspan><tspan x="-47.563" y="24">PROGRAM</tspan></text>
  </g>
</svg>
