<svg xmlns="http://www.w3.org/2000/svg" xmlns:xlink="http://www.w3.org/1999/xlink" width="414" height="896" viewBox="0 0 414 896">
  <defs>
    <style>
      .cls-1 {
        clip-path: url(#clip-iPhone_XR_XS_Max_11_2);
      }

      .cls-2 {
        opacity: 0.1;
      }

      .cls-3 {
        fill: #c6ac3c;
      }

      .cls-4 {
        fill: #9b800e;
      }

      .cls-5 {
        fill: #ccb140;
      }

      .cls-6 {
        fill: #74600b;
      }

      .cls-7 {
        fill: #4e4007;
      }

      .cls-8 {
        fill: #c3b36e;
      }

      .cls-10, .cls-13, .cls-14, .cls-9 {
        fill: #fff;
      }

      .cls-9 {
        font-size: 20px;
      }

      .cls-10, .cls-14, .cls-9 {
        font-family: Roboto-Regular, Roboto;
      }

      .cls-10 {
        font-size: 30px;
      }

      .cls-11, .cls-12, .cls-16 {
        fill: none;
      }

      .cls-11 {
        stroke: #745e18;
        stroke-miterlimit: 10;
        stroke-width: 5px;
      }

      .cls-12 {
        stroke: #fff;
      }

      .cls-14 {
        font-size: 25px;
      }

      .cls-15 {
        stroke: none;
      }

      .cls-17 {
        fill: #151515;
      }
    </style>
    <clipPath id="clip-iPhone_XR_XS_Max_11_2">
      <rect width="414" height="896"/>
    </clipPath>
  </defs>
  <g id="iPhone_XR_XS_Max_11_2" data-name="iPhone XR/XS Max/11 – 2" class="cls-1">
    <rect class="cls-17" width="414" height="896"/>
    <g id="Group_2" data-name="Group 2" class="cls-2" transform="translate(-1059.298 -749.574)">
      <path id="Path_1" data-name="Path 1" class="cls-3" d="M1399.2,1138.887a348.78,348.78,0,0,1-20.357,118.41c-.787-.455-1.588-.881-2.389-1.307a130.344,130.344,0,0,0-32.182-11.912c-2.389-.553-4.826-1.057-7.293-1.479a40.127,40.127,0,0,0-16.068.5l-.125.033a44.994,44.994,0,0,0-13.943,5.912,20.289,20.289,0,0,0-1.965,1.352c-10.471,7.7-16.082,19.586-13.363,31.125a25.893,25.893,0,0,0,4.824,10.014,22.424,22.424,0,0,1,6.133-7.09c10.344-7.8,26.459-5.391,42.6,4.639,1.213.754,2.422,1.541,3.631,2.389,1.26.865,2.518,1.775,3.76,2.752q3.111,2.355,6.146,5.127c.047.029.078.061.125.094.314.283.629.58.943.863-43.6,80.9-118.99,134.381-204.7,134.381-134.867,0-244.205-132.432-244.205-295.8,0-8.66.3-17.262.912-25.732,10.783,65.822,115.594,117.48,243.293,117.48,127.717,0,232.525-51.658,243.309-117.48C1398.9,1121.625,1399.2,1130.227,1399.2,1138.887Z" transform="translate(120.98 198.075)"/>
      <path id="Path_2" data-name="Path 2" class="cls-4" d="M1153.533,1231.576a25.882,25.882,0,0,0,4.824,10.018c-.814,1.445-.7,3.453-.627,6.408-2.752-5-5.756-12.65-5.756-18.986,0-12.354,6.035-23.094,14.918-28.564C1156.426,1208.156,1150.813,1220.039,1153.533,1231.576Z" transform="translate(258.965 248.017)"/>
      <path id="Path_3" data-name="Path 3" class="cls-5" d="M1292.84,1297.592c-.012.123-.012.252-.027.375-2.062,29.07-22.8,53.467-53.029,67.27a42.033,42.033,0,0,0,4.984-8.928,62.7,62.7,0,0,0,3.555-11.648,89.308,89.308,0,0,0,1.713-19.826,114.949,114.949,0,0,0-3.129-24.648,119.19,119.19,0,0,0-7.5-22.041h-.018c-.283-.643-.633-1.336-.994-2.059a81.71,81.71,0,0,0-17.021-22.67c-.312-.281-.629-.582-.945-.865-.049-.033-.078-.062-.125-.094-2.025-1.84-4.072-3.555-6.146-5.125-1.242-.975-2.5-1.885-3.758-2.752-1.209-.85-2.418-1.633-3.633-2.391-16.141-10.029-32.258-12.436-42.6-4.637a22.527,22.527,0,0,0-6.133,7.092,25.944,25.944,0,0,1-4.822-10.014c-2.723-11.541,2.891-23.426,13.361-31.129a21.275,21.275,0,0,1,1.965-1.352,45.2,45.2,0,0,1,13.943-5.912l.127-.029a40.054,40.054,0,0,1,16.068-.5c2.467.424,4.9.926,7.293,1.477a130.418,130.418,0,0,1,32.18,11.918c.8.422,1.6.848,2.391,1.3,4.148,2.268,8.256,4.719,12.213,7.3A88.584,88.584,0,0,1,1292.84,1297.592Z" transform="translate(259.281 244.969)"/>
      <path id="Path_4" data-name="Path 4" class="cls-4" d="M1205.254,1228.432l.006.02a33.441,33.441,0,0,1-6.906,12.811,28.852,28.852,0,0,1-5.143,4.652,25.491,25.491,0,0,1-14.809,4.813,24.4,24.4,0,0,1-5.879-.709,25.877,25.877,0,0,1-9.309-4.385,21.784,21.784,0,0,1-5.906-5.854c-3.014-4.7-2.357-6.1-.812-8.852l.021-.043a22.431,22.431,0,0,1,6.133-7.09C1173,1216,1189.107,1218.4,1205.254,1228.432Z" transform="translate(260.802 258.723)"/>
      <path id="Path_5" data-name="Path 5" class="cls-6" d="M1263.727,1277.631a89.044,89.044,0,0,1-1.715,19.824,62.989,62.989,0,0,1-3.549,11.646,42.262,42.262,0,0,1-4.986,8.93h-.02a131.5,131.5,0,0,1-27.854,9.059,150.72,150.72,0,0,1-41.5,2.721,152.924,152.924,0,0,1-32.838-5.914,137.492,137.492,0,0,1-22.656-8.926,221.044,221.044,0,0,0,48.879-34.227,101.331,101.331,0,0,0,13.848,5.375h.016c2.391.754,4.855,1.416,7.375,2.012a106.784,106.784,0,0,0,12.01,2.139C1233.291,1292.975,1253.4,1288.021,1263.727,1277.631Z" transform="translate(245.595 292.169)"/>
      <path id="Path_6" data-name="Path 6" class="cls-7" d="M1368.447,1152.082c0,59.854-99.246,108.361-221.656,108.361-122.432,0-221.676-48.508-221.676-108.361,0-59.836,99.244-108.359,221.676-108.359C1269.2,1043.723,1368.447,1092.246,1368.447,1152.082Z" transform="translate(129.183 158.358)"/>
      <path id="Path_7" data-name="Path 7" class="cls-8" d="M1112.775,1126.74a54.885,54.885,0,0,1-36.961,37.969,54.854,54.854,0,0,0-14.562-51.5q-1.014-1.011-2.07-1.965a44.085,44.085,0,0,1-10.16-13.268,54.858,54.858,0,0,1,32.521-76.326,54.77,54.77,0,0,0,13.377,48.418q.744.8,1.521,1.58.721.724,1.467,1.414a50.449,50.449,0,0,1,7.91,9.219A54.908,54.908,0,0,1,1112.775,1126.74Z" transform="translate(196.882 145.731)"/>
      <path id="Path_8" data-name="Path 8" class="cls-8" d="M1094.338,978.568a33.2,33.2,0,0,1-22.355,22.965,33.15,33.15,0,0,0-6.432-28.506,33.877,33.877,0,0,0-2.377-2.646c-.408-.406-.826-.8-1.252-1.187a26.605,26.605,0,0,1-6.145-8.025A33.179,33.179,0,0,1,1075.445,915a33.126,33.126,0,0,0,8.094,29.285q.448.483.92.957c.293.291.59.576.887.854a30.452,30.452,0,0,1,4.787,5.576A33.215,33.215,0,0,1,1094.338,978.568Z" transform="translate(202.004 84.72)"/>
      <path id="Path_9" data-name="Path 9" class="cls-8" d="M1062.037,999.461a42.52,42.52,0,0,0-28.631-29.414,42.41,42.41,0,0,1-11.283,39.9q-.785.788-1.6,1.523a34.117,34.117,0,0,0-7.871,10.279,42.5,42.5,0,0,0,25.193,59.129,42.427,42.427,0,0,1,10.363-37.508q.574-.621,1.18-1.225c.375-.373.752-.738,1.135-1.1a38.818,38.818,0,0,0,6.129-7.145A42.53,42.53,0,0,0,1062.037,999.461Z" transform="translate(176.79 116.21)"/>
    </g>
    <text id="Deposit_SOL" data-name="Deposit SOL" class="cls-9" transform="translate(11 344)"><tspan x="0" y="0">Deposit SOL</tspan></text>
    <text id="Collateral_Ratio" data-name="Collateral Ratio" class="cls-9" transform="translate(11 269)"><tspan x="0" y="0">Collateral Ratio</tspan></text>
    <text id="Output_Cappuccino_tokens:" data-name="Output Cappuccino tokens:" class="cls-9" transform="translate(11 418)"><tspan x="0" y="0">Output Cappuccino tokens:</tspan></text>
    <text id="Borrow_Cappuccino" data-name="Borrow Cappuccino" class="cls-9" transform="translate(120 516)"><tspan x="0" y="0">Borrow Cappuccino</tspan></text>
    <text id="Create_Cappuccino_Vault_" data-name="Create Cappuccino Vault " class="cls-10" transform="translate(11 190)"><tspan x="0" y="0">Create Cappuccino Vault </tspan></text>
    <g id="Group_1" data-name="Group 1" transform="translate(-342.298 -610.574)">
      <circle id="Ellipse_1" data-name="Ellipse 1" class="cls-4" cx="23.175" cy="23.175" r="23.175" transform="translate(699.298 767.283)"/>
      <circle id="Ellipse_2" data-name="Ellipse 2" class="cls-11" cx="23.175" cy="23.175" r="23.175" transform="translate(699.298 766.907)"/>
      <path id="Path_1-2" data-name="Path 1" class="cls-3" d="M930.4,1114.187a14.016,14.016,0,0,1-.818,4.759c-.032-.018-.064-.035-.1-.052a5.24,5.24,0,0,0-1.293-.479c-.1-.022-.194-.042-.293-.059a1.612,1.612,0,0,0-.646.02h-.005a1.81,1.81,0,0,0-.56.238.834.834,0,0,0-.079.054,1.229,1.229,0,0,0-.537,1.251,1.04,1.04,0,0,0,.194.4.9.9,0,0,1,.246-.285,1.546,1.546,0,0,1,1.712.186c.049.03.1.062.146.1s.1.071.151.111c.083.063.166.132.247.206l.005,0,.038.035a9.53,9.53,0,0,1-8.226,5.4c-5.42,0-9.814-5.322-9.814-11.888,0-.348.012-.694.037-1.034.433,2.645,4.645,4.721,9.777,4.721s9.345-2.076,9.778-4.721C930.391,1113.493,930.4,1113.839,930.4,1114.187Z" transform="translate(-198.116 -324.37)"/>
      <path id="Path_2-2" data-name="Path 2" class="cls-4" d="M1152.039,1201.7a1.04,1.04,0,0,0,.194.4.535.535,0,0,0-.025.258,1.768,1.768,0,0,1-.231-.763,1.339,1.339,0,0,1,.6-1.148A1.229,1.229,0,0,0,1152.039,1201.7Z" transform="translate(-424.079 -406.153)"/>
      <path id="Path_3-2" data-name="Path 3" class="cls-5" d="M1158.169,1199.24c0,.005,0,.01,0,.015a3.345,3.345,0,0,1-2.131,2.7,1.693,1.693,0,0,0,.2-.359,2.525,2.525,0,0,0,.143-.468,3.592,3.592,0,0,0,.069-.8,4.623,4.623,0,0,0-.126-.991,4.793,4.793,0,0,0-.3-.886h0c-.011-.026-.025-.054-.04-.083a3.284,3.284,0,0,0-.684-.911l-.038-.035-.005,0q-.122-.111-.247-.206c-.05-.039-.1-.076-.151-.111s-.1-.066-.146-.1a1.546,1.546,0,0,0-1.712-.186.9.9,0,0,0-.246.285,1.042,1.042,0,0,1-.194-.4,1.229,1.229,0,0,1,.537-1.251.849.849,0,0,1,.079-.054,1.815,1.815,0,0,1,.56-.238h.005a1.61,1.61,0,0,1,.646-.02c.1.017.2.037.293.059a5.243,5.243,0,0,1,1.293.479c.032.017.064.034.1.052.167.091.332.19.491.293A3.56,3.56,0,0,1,1158.169,1199.24Z" transform="translate(-424.598 -401.161)"/>
      <path id="Path_4-2" data-name="Path 4" class="cls-4" d="M1157.2,1219.541h0a1.344,1.344,0,0,1-.278.515,1.159,1.159,0,0,1-.207.187,1.025,1.025,0,0,1-.6.193.981.981,0,0,1-.236-.028,1.04,1.04,0,0,1-.374-.176.874.874,0,0,1-.237-.235c-.121-.189-.095-.245-.033-.356v0a.9.9,0,0,1,.246-.285A1.546,1.546,0,0,1,1157.2,1219.541Z" transform="translate(-427.091 -423.689)"/>
      <path id="Path_5-2" data-name="Path 5" class="cls-6" d="M1134.036,1277.631a3.577,3.577,0,0,1-.069.8,2.527,2.527,0,0,1-.143.468,1.7,1.7,0,0,1-.2.359h0a5.281,5.281,0,0,1-1.119.364,6.06,6.06,0,0,1-1.668.109,6.151,6.151,0,0,1-1.32-.238,5.526,5.526,0,0,1-.911-.359,8.88,8.88,0,0,0,1.964-1.375,4.074,4.074,0,0,0,.557.216h0c.1.03.2.057.3.081a4.278,4.278,0,0,0,.483.086A2.635,2.635,0,0,0,1134.036,1277.631Z" transform="translate(-402.185 -478.457)"/>
      <path id="Path_6-2" data-name="Path 6" class="cls-7" d="M942.932,1048.078c0,2.405-3.989,4.355-8.908,4.355s-8.909-1.949-8.909-4.355,3.988-4.355,8.909-4.355S942.932,1045.673,942.932,1048.078Z" transform="translate(-211.551 -259.327)"/>
      <path id="Path_7-2" data-name="Path 7" class="cls-8" d="M1046.239,1025.872a2.206,2.206,0,0,1-1.485,1.526,2.2,2.2,0,0,0-.585-2.07q-.041-.041-.083-.079a1.773,1.773,0,0,1-.408-.533,2.2,2.2,0,0,1,1.307-3.067,2.2,2.2,0,0,0,.538,1.946l.061.063.059.057a2.027,2.027,0,0,1,.318.37A2.207,2.207,0,0,1,1046.239,1025.872Z" transform="translate(-322.412 -238.647)"/>
      <path id="Path_8-2" data-name="Path 8" class="cls-8" d="M1054.093,917.557a1.334,1.334,0,0,1-.9.923,1.332,1.332,0,0,0-.354-1.252l-.05-.048a1.07,1.07,0,0,1-.247-.323,1.333,1.333,0,0,1,.79-1.855,1.331,1.331,0,0,0,.325,1.177l.037.038.036.034a1.229,1.229,0,0,1,.192.224A1.335,1.335,0,0,1,1054.093,917.557Z" transform="translate(-330.802 -138.738)"/>
      <path id="Path_9-2" data-name="Path 9" class="cls-8" d="M1010.492,971.229a1.709,1.709,0,0,0-1.151-1.182,1.7,1.7,0,0,1-.453,1.6q-.032.032-.064.061a1.372,1.372,0,0,0-.316.413,1.708,1.708,0,0,0,1.013,2.376,1.7,1.7,0,0,1,.417-1.507l.047-.049.046-.044a1.561,1.561,0,0,0,.246-.287A1.709,1.709,0,0,0,1010.492,971.229Z" transform="translate(-289.512 -190.306)"/>
    </g>
    <g id="Rectangle_1" data-name="Rectangle 1" class="cls-12" transform="translate(179 322)">
      <rect class="cls-15" width="86" height="29" rx="14.5"/>
      <rect class="cls-16" x="0.5" y="0.5" width="85" height="28" rx="14"/>
    </g>
    <g id="Rectangle_7" data-name="Rectangle 7" class="cls-12" transform="translate(317 245)">
      <rect class="cls-15" width="86" height="29" rx="14.5"/>
      <rect class="cls-16" x="0.5" y="0.5" width="85" height="28" rx="14"/>
    </g>
    <g id="Rectangle_5" data-name="Rectangle 5" class="cls-12" transform="translate(317 397)">
      <rect class="cls-15" width="86" height="29" rx="14.5"/>
      <rect class="cls-16" x="0.5" y="0.5" width="85" height="28" rx="14"/>
    </g>
    <g id="Rectangle_6" data-name="Rectangle 6" class="cls-12" transform="translate(100 495)">
      <rect class="cls-15" width="215" height="29" rx="14.5"/>
      <rect class="cls-16" x="0.5" y="0.5" width="214" height="28" rx="14"/>
    </g>
    <g id="Component_1_1" data-name="Component 1 – 1" transform="translate(317 322)">
      <g id="Rectangle_2" data-name="Rectangle 2" class="cls-12">
        <rect class="cls-15" width="86" height="29" rx="14.5"/>
        <rect class="cls-16" x="0.5" y="0.5" width="85" height="28" rx="14"/>
      </g>
      <g id="Group_3" data-name="Group 3" transform="translate(-425.527 -37.314) rotate(-45)">
        <rect id="Rectangle_3" data-name="Rectangle 3" class="cls-13" width="14.648" height="1.584" rx="0.792" transform="translate(285 371.065)"/>
        <rect id="Rectangle_4" data-name="Rectangle 4" class="cls-13" width="14.648" height="1.584" rx="0.792" transform="translate(299.648 358) rotate(90)"/>
      </g>
    </g>
    <text id="_45" data-name="45" class="cls-14" transform="translate(208 345)"><tspan x="0" y="0">45</tspan></text>
    <text id="_150_" data-name="150%" class="cls-14" transform="translate(330 268)"><tspan x="0" y="0">150%</tspan></text>
    <text id="_38" data-name="38" class="cls-14" transform="translate(346 420)"><tspan x="0" y="0">38</tspan></text>
  </g>
</svg>
